<mxfile host="Electron" modified="2024-02-12T08:05:23.564Z" agent="Mozilla/5.0 (X11; Linux x86_64) AppleWebKit/537.36 (KHTML, like Gecko) draw.io/23.0.2 Chrome/120.0.6099.109 Electron/28.1.0 Safari/537.36" etag="GQX7VGmFlONtH3QXs57K" version="23.0.2" type="device">
  <diagram name="Page-1" id="v6Lo0fytAKYW8GpiB0L7">
    <mxGraphModel dx="649" dy="401" grid="1" gridSize="10" guides="1" tooltips="1" connect="1" arrows="1" fold="1" page="1" pageScale="1" pageWidth="827" pageHeight="1169" math="0" shadow="0">
      <root>
        <mxCell id="0" />
        <mxCell id="1" parent="0" />
        <mxCell id="czz9d_WLZtdWxG6cxCuf-1" value="Classification" style="rounded=0;whiteSpace=wrap;html=1;fontSize=18;fillColor=#fff2cc;strokeColor=#d6b656;" vertex="1" parent="1">
          <mxGeometry x="280" y="80" width="200" height="40" as="geometry" />
        </mxCell>
        <mxCell id="czz9d_WLZtdWxG6cxCuf-2" value="Scoring" style="rounded=0;whiteSpace=wrap;html=1;fontSize=18;" vertex="1" parent="1">
          <mxGeometry x="280" y="120" width="200" height="40" as="geometry" />
        </mxCell>
        <mxCell id="czz9d_WLZtdWxG6cxCuf-3" value="Forecasting" style="rounded=0;whiteSpace=wrap;html=1;fontSize=18;" vertex="1" parent="1">
          <mxGeometry x="280" y="160" width="200" height="40" as="geometry" />
        </mxCell>
        <mxCell id="czz9d_WLZtdWxG6cxCuf-4" value="Clustering" style="rounded=0;whiteSpace=wrap;html=1;fontSize=18;" vertex="1" parent="1">
          <mxGeometry x="280" y="280" width="200" height="40" as="geometry" />
        </mxCell>
        <mxCell id="czz9d_WLZtdWxG6cxCuf-5" value="Optimization" style="rounded=0;whiteSpace=wrap;html=1;fontSize=18;" vertex="1" parent="1">
          <mxGeometry x="280" y="400" width="200" height="40" as="geometry" />
        </mxCell>
        <mxCell id="czz9d_WLZtdWxG6cxCuf-6" value="Anomaly Detection" style="rounded=0;whiteSpace=wrap;html=1;fontSize=18;" vertex="1" parent="1">
          <mxGeometry x="280" y="320" width="200" height="40" as="geometry" />
        </mxCell>
        <mxCell id="czz9d_WLZtdWxG6cxCuf-7" value="Simulation" style="rounded=0;whiteSpace=wrap;html=1;fontSize=18;" vertex="1" parent="1">
          <mxGeometry x="280" y="440" width="200" height="40" as="geometry" />
        </mxCell>
        <mxCell id="czz9d_WLZtdWxG6cxCuf-8" value="Recommendation" style="rounded=0;whiteSpace=wrap;html=1;fontSize=18;" vertex="1" parent="1">
          <mxGeometry x="280" y="200" width="200" height="40" as="geometry" />
        </mxCell>
        <mxCell id="czz9d_WLZtdWxG6cxCuf-9" value="Visualization" style="rounded=0;whiteSpace=wrap;html=1;fontSize=18;fillColor=#d5e8d4;strokeColor=#82b366;" vertex="1" parent="1">
          <mxGeometry x="280" y="520" width="200" height="40" as="geometry" />
        </mxCell>
        <mxCell id="czz9d_WLZtdWxG6cxCuf-10" value="Descriptive Analysis" style="rounded=0;whiteSpace=wrap;html=1;fontSize=18;fillColor=#d5e8d4;strokeColor=#82b366;" vertex="1" parent="1">
          <mxGeometry x="280" y="560" width="200" height="40" as="geometry" />
        </mxCell>
        <mxCell id="czz9d_WLZtdWxG6cxCuf-11" value="Decide 1 or 0" style="rounded=0;whiteSpace=wrap;html=1;fontSize=18;fillColor=#fff2cc;strokeColor=#d6b656;" vertex="1" parent="1">
          <mxGeometry x="480" y="80" width="200" height="40" as="geometry" />
        </mxCell>
        <mxCell id="czz9d_WLZtdWxG6cxCuf-12" value="Estimate the value" style="rounded=0;whiteSpace=wrap;html=1;fontSize=18;" vertex="1" parent="1">
          <mxGeometry x="480" y="120" width="200" height="40" as="geometry" />
        </mxCell>
        <mxCell id="czz9d_WLZtdWxG6cxCuf-13" value="Forecast a future value" style="rounded=0;whiteSpace=wrap;html=1;fontSize=18;" vertex="1" parent="1">
          <mxGeometry x="480" y="160" width="200" height="40" as="geometry" />
        </mxCell>
        <mxCell id="czz9d_WLZtdWxG6cxCuf-14" value="Split into groups" style="rounded=0;whiteSpace=wrap;html=1;fontSize=18;" vertex="1" parent="1">
          <mxGeometry x="480" y="280" width="200" height="40" as="geometry" />
        </mxCell>
        <mxCell id="czz9d_WLZtdWxG6cxCuf-15" value="Optimize route" style="rounded=0;whiteSpace=wrap;html=1;fontSize=18;" vertex="1" parent="1">
          <mxGeometry x="480" y="400" width="200" height="40" as="geometry" />
        </mxCell>
        <mxCell id="czz9d_WLZtdWxG6cxCuf-16" value="Find anomaly" style="rounded=0;whiteSpace=wrap;html=1;fontSize=18;" vertex="1" parent="1">
          <mxGeometry x="480" y="320" width="200" height="40" as="geometry" />
        </mxCell>
        <mxCell id="czz9d_WLZtdWxG6cxCuf-17" value="Simulate variations" style="rounded=0;whiteSpace=wrap;html=1;fontSize=18;" vertex="1" parent="1">
          <mxGeometry x="480" y="440" width="200" height="40" as="geometry" />
        </mxCell>
        <mxCell id="czz9d_WLZtdWxG6cxCuf-18" value="Recommend a product" style="rounded=0;whiteSpace=wrap;html=1;fontSize=18;" vertex="1" parent="1">
          <mxGeometry x="480" y="200" width="200" height="40" as="geometry" />
        </mxCell>
        <mxCell id="czz9d_WLZtdWxG6cxCuf-19" value="Visualize data" style="rounded=0;whiteSpace=wrap;html=1;fontSize=18;fillColor=#d5e8d4;strokeColor=#82b366;" vertex="1" parent="1">
          <mxGeometry x="480" y="520" width="200" height="40" as="geometry" />
        </mxCell>
        <mxCell id="czz9d_WLZtdWxG6cxCuf-20" value="Describe data" style="rounded=0;whiteSpace=wrap;html=1;fontSize=18;fillColor=#d5e8d4;strokeColor=#82b366;" vertex="1" parent="1">
          <mxGeometry x="480" y="560" width="200" height="40" as="geometry" />
        </mxCell>
        <mxCell id="czz9d_WLZtdWxG6cxCuf-21" value="PROBLEM DOMAIN" style="rounded=0;whiteSpace=wrap;html=1;fontSize=18;fontStyle=1" vertex="1" parent="1">
          <mxGeometry x="280" y="40" width="200" height="40" as="geometry" />
        </mxCell>
        <mxCell id="czz9d_WLZtdWxG6cxCuf-22" value="WHAT IT DOES" style="rounded=0;whiteSpace=wrap;html=1;fontSize=18;fontStyle=1" vertex="1" parent="1">
          <mxGeometry x="480" y="40" width="200" height="40" as="geometry" />
        </mxCell>
        <mxCell id="czz9d_WLZtdWxG6cxCuf-23" value="DOMAIN TYPE" style="rounded=0;whiteSpace=wrap;html=1;fontSize=18;fontStyle=1" vertex="1" parent="1">
          <mxGeometry x="80" y="40" width="200" height="40" as="geometry" />
        </mxCell>
        <mxCell id="czz9d_WLZtdWxG6cxCuf-24" value="SUPERVISED" style="rounded=0;whiteSpace=wrap;html=1;fontSize=18;" vertex="1" parent="1">
          <mxGeometry x="80" y="80" width="200" height="40" as="geometry" />
        </mxCell>
        <mxCell id="czz9d_WLZtdWxG6cxCuf-25" value="SUPERVISED" style="rounded=0;whiteSpace=wrap;html=1;fontSize=18;" vertex="1" parent="1">
          <mxGeometry x="80" y="120" width="200" height="40" as="geometry" />
        </mxCell>
        <mxCell id="czz9d_WLZtdWxG6cxCuf-26" value="SUPERVISED" style="rounded=0;whiteSpace=wrap;html=1;fontSize=18;" vertex="1" parent="1">
          <mxGeometry x="80" y="160" width="200" height="40" as="geometry" />
        </mxCell>
        <mxCell id="czz9d_WLZtdWxG6cxCuf-27" value="UNSUPERVISED" style="rounded=0;whiteSpace=wrap;html=1;fontSize=18;" vertex="1" parent="1">
          <mxGeometry x="80" y="280" width="200" height="40" as="geometry" />
        </mxCell>
        <mxCell id="czz9d_WLZtdWxG6cxCuf-28" value="UNSUPERVISED" style="rounded=0;whiteSpace=wrap;html=1;fontSize=18;" vertex="1" parent="1">
          <mxGeometry x="80" y="320" width="200" height="40" as="geometry" />
        </mxCell>
        <mxCell id="czz9d_WLZtdWxG6cxCuf-29" value="BOTH" style="rounded=0;whiteSpace=wrap;html=1;fontSize=18;" vertex="1" parent="1">
          <mxGeometry x="80" y="520" width="200" height="40" as="geometry" />
        </mxCell>
        <mxCell id="czz9d_WLZtdWxG6cxCuf-30" value="BOTH" style="rounded=0;whiteSpace=wrap;html=1;fontSize=18;" vertex="1" parent="1">
          <mxGeometry x="80" y="560" width="200" height="40" as="geometry" />
        </mxCell>
        <mxCell id="czz9d_WLZtdWxG6cxCuf-31" value="SUPERVISED" style="rounded=0;whiteSpace=wrap;html=1;fontSize=18;" vertex="1" parent="1">
          <mxGeometry x="80" y="200" width="200" height="40" as="geometry" />
        </mxCell>
        <mxCell id="czz9d_WLZtdWxG6cxCuf-32" value="OTHER" style="rounded=0;whiteSpace=wrap;html=1;fontSize=18;" vertex="1" parent="1">
          <mxGeometry x="80" y="400" width="200" height="40" as="geometry" />
        </mxCell>
        <mxCell id="czz9d_WLZtdWxG6cxCuf-33" value="OTHER" style="rounded=0;whiteSpace=wrap;html=1;fontSize=18;" vertex="1" parent="1">
          <mxGeometry x="80" y="440" width="200" height="40" as="geometry" />
        </mxCell>
        <mxCell id="czz9d_WLZtdWxG6cxCuf-34" value="TARGET (!) feature = Y" style="rounded=0;whiteSpace=wrap;html=1;fontSize=18;" vertex="1" parent="1">
          <mxGeometry x="880" y="80" width="200" height="40" as="geometry" />
        </mxCell>
        <mxCell id="czz9d_WLZtdWxG6cxCuf-35" value="y = f( x )" style="rounded=0;whiteSpace=wrap;html=1;fontSize=18;" vertex="1" parent="1">
          <mxGeometry x="1120" y="80" width="200" height="40" as="geometry" />
        </mxCell>
        <mxCell id="czz9d_WLZtdWxG6cxCuf-36" value="y = f( x1, x2, x3..... )" style="rounded=0;whiteSpace=wrap;html=1;fontSize=18;" vertex="1" parent="1">
          <mxGeometry x="1120" y="120" width="200" height="40" as="geometry" />
        </mxCell>
        <mxCell id="czz9d_WLZtdWxG6cxCuf-37" value="Target = f( from, to, dow, airline, time, length..... )" style="rounded=0;whiteSpace=wrap;html=1;fontSize=18;" vertex="1" parent="1">
          <mxGeometry x="880" y="200" width="440" height="40" as="geometry" />
        </mxCell>
        <mxCell id="czz9d_WLZtdWxG6cxCuf-42" value="TRAINING" style="edgeStyle=orthogonalEdgeStyle;rounded=0;orthogonalLoop=1;jettySize=auto;html=1;entryX=0;entryY=0.5;entryDx=0;entryDy=0;" edge="1" parent="1" source="czz9d_WLZtdWxG6cxCuf-38" target="czz9d_WLZtdWxG6cxCuf-39">
          <mxGeometry relative="1" as="geometry" />
        </mxCell>
        <mxCell id="czz9d_WLZtdWxG6cxCuf-38" value="DATASET&lt;br&gt;DATABASE&lt;br&gt;DATAFRAME" style="shape=cylinder3;whiteSpace=wrap;html=1;boundedLbl=1;backgroundOutline=1;size=15;fillColor=#fff2cc;strokeColor=#d6b656;" vertex="1" parent="1">
          <mxGeometry x="880" y="300" width="120" height="180" as="geometry" />
        </mxCell>
        <mxCell id="czz9d_WLZtdWxG6cxCuf-43" style="edgeStyle=orthogonalEdgeStyle;rounded=0;orthogonalLoop=1;jettySize=auto;html=1;" edge="1" parent="1" source="czz9d_WLZtdWxG6cxCuf-39" target="czz9d_WLZtdWxG6cxCuf-40">
          <mxGeometry relative="1" as="geometry" />
        </mxCell>
        <mxCell id="czz9d_WLZtdWxG6cxCuf-39" value="PROCESS&lt;br&gt;ALGORITHM" style="rounded=0;whiteSpace=wrap;html=1;" vertex="1" parent="1">
          <mxGeometry x="1080" y="360" width="120" height="60" as="geometry" />
        </mxCell>
        <mxCell id="czz9d_WLZtdWxG6cxCuf-40" value="MODEL" style="rhombus;whiteSpace=wrap;html=1;fillColor=#d5e8d4;strokeColor=#82b366;" vertex="1" parent="1">
          <mxGeometry x="1280" y="350" width="80" height="80" as="geometry" />
        </mxCell>
        <mxCell id="czz9d_WLZtdWxG6cxCuf-44" value="Vergi (Tax) hesaplama formula = function = rule&lt;br&gt;Azerbaijan da, company için Vergi Hesaplama&lt;br&gt;MODEL" style="rounded=0;whiteSpace=wrap;html=1;fontSize=18;" vertex="1" parent="1">
          <mxGeometry x="880" y="560" width="480" height="80" as="geometry" />
        </mxCell>
        <mxCell id="czz9d_WLZtdWxG6cxCuf-48" value="EVET" style="edgeStyle=orthogonalEdgeStyle;rounded=0;orthogonalLoop=1;jettySize=auto;html=1;entryX=0.5;entryY=0;entryDx=0;entryDy=0;" edge="1" parent="1" source="czz9d_WLZtdWxG6cxCuf-46" target="czz9d_WLZtdWxG6cxCuf-47">
          <mxGeometry relative="1" as="geometry" />
        </mxCell>
        <mxCell id="czz9d_WLZtdWxG6cxCuf-50" value="HAYIR" style="edgeStyle=orthogonalEdgeStyle;rounded=0;orthogonalLoop=1;jettySize=auto;html=1;" edge="1" parent="1" source="czz9d_WLZtdWxG6cxCuf-46" target="czz9d_WLZtdWxG6cxCuf-49">
          <mxGeometry relative="1" as="geometry">
            <Array as="points">
              <mxPoint x="1140" y="770" />
              <mxPoint x="1300" y="770" />
            </Array>
          </mxGeometry>
        </mxCell>
        <mxCell id="czz9d_WLZtdWxG6cxCuf-46" value="yearly income&amp;gt;1000000" style="rounded=0;whiteSpace=wrap;html=1;fillColor=#d5e8d4;strokeColor=#82b366;" vertex="1" parent="1">
          <mxGeometry x="1080" y="680" width="120" height="60" as="geometry" />
        </mxCell>
        <mxCell id="czz9d_WLZtdWxG6cxCuf-57" value="ANONIM&amp;nbsp;" style="edgeStyle=orthogonalEdgeStyle;rounded=0;orthogonalLoop=1;jettySize=auto;html=1;entryX=0.5;entryY=0;entryDx=0;entryDy=0;" edge="1" parent="1" source="czz9d_WLZtdWxG6cxCuf-47" target="czz9d_WLZtdWxG6cxCuf-56">
          <mxGeometry relative="1" as="geometry">
            <Array as="points">
              <mxPoint x="1020" y="870" />
              <mxPoint x="1260" y="870" />
              <mxPoint x="1260" y="910" />
              <mxPoint x="1570" y="910" />
            </Array>
          </mxGeometry>
        </mxCell>
        <mxCell id="czz9d_WLZtdWxG6cxCuf-47" value="COMPANY TYPE" style="rounded=0;whiteSpace=wrap;html=1;fillColor=#d5e8d4;strokeColor=#82b366;" vertex="1" parent="1">
          <mxGeometry x="960" y="800" width="120" height="60" as="geometry" />
        </mxCell>
        <mxCell id="czz9d_WLZtdWxG6cxCuf-49" value="yearly income&amp;gt;1000000" style="rounded=0;whiteSpace=wrap;html=1;fillColor=#d5e8d4;strokeColor=#82b366;" vertex="1" parent="1">
          <mxGeometry x="1240" y="800" width="120" height="60" as="geometry" />
        </mxCell>
        <mxCell id="czz9d_WLZtdWxG6cxCuf-66" value="x&amp;gt;8" style="edgeStyle=orthogonalEdgeStyle;rounded=0;orthogonalLoop=1;jettySize=auto;html=1;" edge="1" parent="1" source="czz9d_WLZtdWxG6cxCuf-51" target="czz9d_WLZtdWxG6cxCuf-63">
          <mxGeometry x="0.5385" relative="1" as="geometry">
            <mxPoint as="offset" />
          </mxGeometry>
        </mxCell>
        <mxCell id="czz9d_WLZtdWxG6cxCuf-67" value="x&amp;gt;10" style="edgeStyle=orthogonalEdgeStyle;rounded=0;orthogonalLoop=1;jettySize=auto;html=1;" edge="1" parent="1" source="czz9d_WLZtdWxG6cxCuf-51" target="czz9d_WLZtdWxG6cxCuf-64">
          <mxGeometry x="0.4146" y="-20" relative="1" as="geometry">
            <mxPoint as="offset" />
          </mxGeometry>
        </mxCell>
        <mxCell id="czz9d_WLZtdWxG6cxCuf-51" value="#of group companies" style="rounded=0;whiteSpace=wrap;html=1;fillColor=#d5e8d4;strokeColor=#82b366;" vertex="1" parent="1">
          <mxGeometry x="1040" y="920" width="120" height="60" as="geometry" />
        </mxCell>
        <mxCell id="czz9d_WLZtdWxG6cxCuf-52" style="edgeStyle=orthogonalEdgeStyle;rounded=0;orthogonalLoop=1;jettySize=auto;html=1;entryX=0.426;entryY=-0.043;entryDx=0;entryDy=0;entryPerimeter=0;" edge="1" parent="1" source="czz9d_WLZtdWxG6cxCuf-47" target="czz9d_WLZtdWxG6cxCuf-51">
          <mxGeometry relative="1" as="geometry" />
        </mxCell>
        <mxCell id="czz9d_WLZtdWxG6cxCuf-54" value="HOLDING" style="edgeLabel;html=1;align=center;verticalAlign=middle;resizable=0;points=[];" vertex="1" connectable="0" parent="czz9d_WLZtdWxG6cxCuf-52">
          <mxGeometry x="-0.333" y="-2" relative="1" as="geometry">
            <mxPoint x="17" y="8" as="offset" />
          </mxGeometry>
        </mxCell>
        <mxCell id="czz9d_WLZtdWxG6cxCuf-60" value="x&amp;gt;5" style="edgeStyle=orthogonalEdgeStyle;rounded=0;orthogonalLoop=1;jettySize=auto;html=1;entryX=0.5;entryY=0;entryDx=0;entryDy=0;" edge="1" parent="1" source="czz9d_WLZtdWxG6cxCuf-53" target="czz9d_WLZtdWxG6cxCuf-59">
          <mxGeometry relative="1" as="geometry" />
        </mxCell>
        <mxCell id="czz9d_WLZtdWxG6cxCuf-61" value="x&amp;lt;5" style="edgeStyle=orthogonalEdgeStyle;rounded=0;orthogonalLoop=1;jettySize=auto;html=1;" edge="1" parent="1" source="czz9d_WLZtdWxG6cxCuf-53" target="czz9d_WLZtdWxG6cxCuf-58">
          <mxGeometry relative="1" as="geometry" />
        </mxCell>
        <mxCell id="czz9d_WLZtdWxG6cxCuf-53" value="YEAR" style="rounded=0;whiteSpace=wrap;html=1;fillColor=#d5e8d4;strokeColor=#82b366;" vertex="1" parent="1">
          <mxGeometry x="880" y="920" width="120" height="60" as="geometry" />
        </mxCell>
        <mxCell id="czz9d_WLZtdWxG6cxCuf-55" value="LIMITED" style="edgeStyle=orthogonalEdgeStyle;rounded=0;orthogonalLoop=1;jettySize=auto;html=1;entryX=0.479;entryY=-0.052;entryDx=0;entryDy=0;entryPerimeter=0;" edge="1" parent="1" source="czz9d_WLZtdWxG6cxCuf-47" target="czz9d_WLZtdWxG6cxCuf-53">
          <mxGeometry x="0.5783" y="-10" relative="1" as="geometry">
            <mxPoint as="offset" />
          </mxGeometry>
        </mxCell>
        <mxCell id="czz9d_WLZtdWxG6cxCuf-56" value="" style="rounded=0;whiteSpace=wrap;html=1;fillColor=#d5e8d4;strokeColor=#82b366;" vertex="1" parent="1">
          <mxGeometry x="1510" y="960" width="120" height="60" as="geometry" />
        </mxCell>
        <mxCell id="czz9d_WLZtdWxG6cxCuf-58" value="%15" style="rounded=0;whiteSpace=wrap;html=1;fillColor=#d5e8d4;strokeColor=#82b366;" vertex="1" parent="1">
          <mxGeometry x="960" y="1040" width="120" height="60" as="geometry" />
        </mxCell>
        <mxCell id="czz9d_WLZtdWxG6cxCuf-59" value="%20" style="rounded=0;whiteSpace=wrap;html=1;fillColor=#d5e8d4;strokeColor=#82b366;" vertex="1" parent="1">
          <mxGeometry x="840" y="1040" width="120" height="60" as="geometry" />
        </mxCell>
        <mxCell id="czz9d_WLZtdWxG6cxCuf-62" value="%12" style="rounded=0;whiteSpace=wrap;html=1;fillColor=#d5e8d4;strokeColor=#82b366;" vertex="1" parent="1">
          <mxGeometry x="1121" y="1040" width="120" height="60" as="geometry" />
        </mxCell>
        <mxCell id="czz9d_WLZtdWxG6cxCuf-63" value="%10" style="rounded=0;whiteSpace=wrap;html=1;fillColor=#d5e8d4;strokeColor=#82b366;" vertex="1" parent="1">
          <mxGeometry x="1270" y="1040" width="120" height="60" as="geometry" />
        </mxCell>
        <mxCell id="czz9d_WLZtdWxG6cxCuf-64" value="%8" style="rounded=0;whiteSpace=wrap;html=1;fillColor=#d5e8d4;strokeColor=#82b366;" vertex="1" parent="1">
          <mxGeometry x="1420" y="1040" width="120" height="60" as="geometry" />
        </mxCell>
        <mxCell id="czz9d_WLZtdWxG6cxCuf-65" value="x&amp;gt;5" style="edgeStyle=orthogonalEdgeStyle;rounded=0;orthogonalLoop=1;jettySize=auto;html=1;entryX=0.446;entryY=-0.014;entryDx=0;entryDy=0;entryPerimeter=0;" edge="1" parent="1" source="czz9d_WLZtdWxG6cxCuf-51" target="czz9d_WLZtdWxG6cxCuf-62">
          <mxGeometry relative="1" as="geometry" />
        </mxCell>
        <mxCell id="czz9d_WLZtdWxG6cxCuf-68" value="eğer bir company iseniz, ve yıllık geliriniz 1 milyon manat üzerinde ise;&lt;br&gt;&lt;br&gt;a) company türünüz, Limited ise. ....." style="text;html=1;strokeColor=none;fillColor=none;align=center;verticalAlign=middle;whiteSpace=wrap;rounded=0;" vertex="1" parent="1">
          <mxGeometry x="1390" y="670" width="220" height="120" as="geometry" />
        </mxCell>
        <mxCell id="czz9d_WLZtdWxG6cxCuf-70" style="edgeStyle=orthogonalEdgeStyle;rounded=0;orthogonalLoop=1;jettySize=auto;html=1;" edge="1" parent="1" source="czz9d_WLZtdWxG6cxCuf-69">
          <mxGeometry relative="1" as="geometry">
            <mxPoint x="1010" y="730" as="targetPoint" />
          </mxGeometry>
        </mxCell>
        <mxCell id="czz9d_WLZtdWxG6cxCuf-69" value="MODEL" style="text;html=1;strokeColor=none;fillColor=none;align=center;verticalAlign=middle;whiteSpace=wrap;rounded=0;" vertex="1" parent="1">
          <mxGeometry x="880" y="695" width="60" height="30" as="geometry" />
        </mxCell>
        <mxCell id="czz9d_WLZtdWxG6cxCuf-71" value="LEARNING" style="text;html=1;strokeColor=none;fillColor=none;align=center;verticalAlign=middle;whiteSpace=wrap;rounded=0;" vertex="1" parent="1">
          <mxGeometry x="1010" y="440" width="60" height="30" as="geometry" />
        </mxCell>
        <mxCell id="czz9d_WLZtdWxG6cxCuf-73" value="MODEL = FUNCTION&lt;br&gt;&lt;br&gt;MODEL = RULE&lt;br&gt;&lt;br&gt;MODEL = FORMULA&lt;br&gt;&lt;br&gt;MODEL = SUMMARY OF DATA&lt;br&gt;&lt;br&gt;MODEL = THE PROCEDURE OF HOW THINGS DONE" style="rounded=0;whiteSpace=wrap;html=1;" vertex="1" parent="1">
          <mxGeometry x="1440" y="360" width="120" height="190" as="geometry" />
        </mxCell>
        <mxCell id="czz9d_WLZtdWxG6cxCuf-76" style="edgeStyle=orthogonalEdgeStyle;rounded=0;orthogonalLoop=1;jettySize=auto;html=1;entryX=0.5;entryY=0;entryDx=0;entryDy=0;" edge="1" parent="1" source="czz9d_WLZtdWxG6cxCuf-75" target="czz9d_WLZtdWxG6cxCuf-40">
          <mxGeometry relative="1" as="geometry" />
        </mxCell>
        <mxCell id="czz9d_WLZtdWxG6cxCuf-75" value="1 row of NEW Data" style="shape=cylinder3;whiteSpace=wrap;html=1;boundedLbl=1;backgroundOutline=1;size=15;fillColor=#f8cecc;strokeColor=#b85450;" vertex="1" parent="1">
          <mxGeometry x="1260" y="260" width="120" height="50" as="geometry" />
        </mxCell>
        <mxCell id="czz9d_WLZtdWxG6cxCuf-77" value="prediction" style="shape=cylinder3;whiteSpace=wrap;html=1;boundedLbl=1;backgroundOutline=1;size=15;fillColor=#f8cecc;strokeColor=#b85450;" vertex="1" parent="1">
          <mxGeometry x="1260" y="470" width="120" height="40" as="geometry" />
        </mxCell>
        <mxCell id="czz9d_WLZtdWxG6cxCuf-78" style="edgeStyle=orthogonalEdgeStyle;rounded=0;orthogonalLoop=1;jettySize=auto;html=1;entryX=0.5;entryY=0;entryDx=0;entryDy=0;entryPerimeter=0;" edge="1" parent="1" source="czz9d_WLZtdWxG6cxCuf-40" target="czz9d_WLZtdWxG6cxCuf-77">
          <mxGeometry relative="1" as="geometry" />
        </mxCell>
        <mxCell id="czz9d_WLZtdWxG6cxCuf-79" value="DO IT ONCE!" style="text;html=1;strokeColor=none;fillColor=none;align=center;verticalAlign=middle;whiteSpace=wrap;rounded=0;" vertex="1" parent="1">
          <mxGeometry x="1100" y="470" width="60" height="30" as="geometry" />
        </mxCell>
        <mxCell id="czz9d_WLZtdWxG6cxCuf-80" value="SAVE" style="text;html=1;strokeColor=none;fillColor=none;align=center;verticalAlign=middle;whiteSpace=wrap;rounded=0;" vertex="1" parent="1">
          <mxGeometry x="1211" y="400" width="60" height="30" as="geometry" />
        </mxCell>
        <mxCell id="czz9d_WLZtdWxG6cxCuf-81" value="INFER - CALCULATE - FORECAST - PREDICT - EXECUTION - BY PROGRAMMING" style="text;html=1;strokeColor=none;fillColor=none;align=center;verticalAlign=middle;whiteSpace=wrap;rounded=0;" vertex="1" parent="1">
          <mxGeometry x="1330" y="320" width="250" height="30" as="geometry" />
        </mxCell>
        <mxCell id="czz9d_WLZtdWxG6cxCuf-82" value="" style="endArrow=classic;html=1;rounded=0;" edge="1" parent="1">
          <mxGeometry width="50" height="50" relative="1" as="geometry">
            <mxPoint x="140" y="1080" as="sourcePoint" />
            <mxPoint x="680" y="1080" as="targetPoint" />
          </mxGeometry>
        </mxCell>
        <mxCell id="czz9d_WLZtdWxG6cxCuf-83" value="" style="endArrow=classic;html=1;rounded=0;" edge="1" parent="1">
          <mxGeometry width="50" height="50" relative="1" as="geometry">
            <mxPoint x="200" y="1120" as="sourcePoint" />
            <mxPoint x="200" y="860" as="targetPoint" />
          </mxGeometry>
        </mxCell>
        <mxCell id="czz9d_WLZtdWxG6cxCuf-85" value="y" style="text;html=1;strokeColor=none;fillColor=none;align=center;verticalAlign=middle;whiteSpace=wrap;rounded=0;fontSize=22;" vertex="1" parent="1">
          <mxGeometry x="180" y="815" width="60" height="30" as="geometry" />
        </mxCell>
        <mxCell id="czz9d_WLZtdWxG6cxCuf-86" value="x" style="text;html=1;strokeColor=none;fillColor=none;align=center;verticalAlign=middle;whiteSpace=wrap;rounded=0;fontSize=22;" vertex="1" parent="1">
          <mxGeometry x="670" y="1040" width="60" height="30" as="geometry" />
        </mxCell>
        <mxCell id="czz9d_WLZtdWxG6cxCuf-88" value="" style="endArrow=none;html=1;rounded=0;" edge="1" parent="1">
          <mxGeometry width="50" height="50" relative="1" as="geometry">
            <mxPoint x="200" y="1080" as="sourcePoint" />
            <mxPoint x="420" y="860" as="targetPoint" />
          </mxGeometry>
        </mxCell>
        <mxCell id="czz9d_WLZtdWxG6cxCuf-89" value="2" style="text;html=1;strokeColor=none;fillColor=none;align=center;verticalAlign=middle;whiteSpace=wrap;rounded=0;" vertex="1" parent="1">
          <mxGeometry x="140" y="980" width="60" height="30" as="geometry" />
        </mxCell>
        <mxCell id="czz9d_WLZtdWxG6cxCuf-90" value="1" style="text;html=1;strokeColor=none;fillColor=none;align=center;verticalAlign=middle;whiteSpace=wrap;rounded=0;" vertex="1" parent="1">
          <mxGeometry x="140" y="1020" width="60" height="30" as="geometry" />
        </mxCell>
        <mxCell id="czz9d_WLZtdWxG6cxCuf-91" value="1" style="text;html=1;strokeColor=none;fillColor=none;align=center;verticalAlign=middle;whiteSpace=wrap;rounded=0;" vertex="1" parent="1">
          <mxGeometry x="210" y="1080" width="60" height="30" as="geometry" />
        </mxCell>
        <mxCell id="czz9d_WLZtdWxG6cxCuf-92" value="2" style="text;html=1;strokeColor=none;fillColor=none;align=center;verticalAlign=middle;whiteSpace=wrap;rounded=0;" vertex="1" parent="1">
          <mxGeometry x="250" y="1080" width="60" height="30" as="geometry" />
        </mxCell>
        <mxCell id="czz9d_WLZtdWxG6cxCuf-93" value="" style="endArrow=none;dashed=1;html=1;dashPattern=1 3;strokeWidth=2;rounded=0;" edge="1" parent="1">
          <mxGeometry width="50" height="50" relative="1" as="geometry">
            <mxPoint x="280" y="1080" as="sourcePoint" />
            <mxPoint x="280" y="1000" as="targetPoint" />
          </mxGeometry>
        </mxCell>
        <mxCell id="czz9d_WLZtdWxG6cxCuf-94" value="" style="endArrow=none;dashed=1;html=1;dashPattern=1 3;strokeWidth=2;rounded=0;entryX=1;entryY=0.75;entryDx=0;entryDy=0;" edge="1" parent="1" target="czz9d_WLZtdWxG6cxCuf-89">
          <mxGeometry width="50" height="50" relative="1" as="geometry">
            <mxPoint x="280" y="1000" as="sourcePoint" />
            <mxPoint x="160" y="990" as="targetPoint" />
          </mxGeometry>
        </mxCell>
        <mxCell id="czz9d_WLZtdWxG6cxCuf-95" value="y = 1x" style="text;html=1;strokeColor=none;fillColor=none;align=center;verticalAlign=middle;whiteSpace=wrap;rounded=0;fontSize=22;" vertex="1" parent="1">
          <mxGeometry x="430" y="830" width="90" height="30" as="geometry" />
        </mxCell>
        <mxCell id="czz9d_WLZtdWxG6cxCuf-96" value="" style="endArrow=none;html=1;rounded=0;strokeColor=#FF0000;" edge="1" parent="1">
          <mxGeometry width="50" height="50" relative="1" as="geometry">
            <mxPoint x="200" y="1080" as="sourcePoint" />
            <mxPoint x="320" y="840" as="targetPoint" />
          </mxGeometry>
        </mxCell>
        <mxCell id="czz9d_WLZtdWxG6cxCuf-97" value="" style="ellipse;whiteSpace=wrap;html=1;aspect=fixed;fillColor=none;" vertex="1" parent="1">
          <mxGeometry x="223" y="985" width="30" height="30" as="geometry" />
        </mxCell>
        <mxCell id="czz9d_WLZtdWxG6cxCuf-99" value="y = 2x" style="text;html=1;strokeColor=none;fillColor=none;align=center;verticalAlign=middle;whiteSpace=wrap;rounded=0;fontSize=22;" vertex="1" parent="1">
          <mxGeometry x="290" y="810" width="90" height="30" as="geometry" />
        </mxCell>
        <mxCell id="czz9d_WLZtdWxG6cxCuf-100" value="" style="endArrow=classic;html=1;rounded=0;" edge="1" parent="1">
          <mxGeometry width="50" height="50" relative="1" as="geometry">
            <mxPoint x="160" y="1440" as="sourcePoint" />
            <mxPoint x="480" y="1440" as="targetPoint" />
          </mxGeometry>
        </mxCell>
        <mxCell id="czz9d_WLZtdWxG6cxCuf-101" value="" style="endArrow=classic;html=1;rounded=0;" edge="1" parent="1">
          <mxGeometry width="50" height="50" relative="1" as="geometry">
            <mxPoint x="160" y="1440" as="sourcePoint" />
            <mxPoint x="160" y="1240" as="targetPoint" />
          </mxGeometry>
        </mxCell>
        <mxCell id="czz9d_WLZtdWxG6cxCuf-102" value="2" style="text;html=1;strokeColor=none;fillColor=none;align=center;verticalAlign=middle;whiteSpace=wrap;rounded=0;" vertex="1" parent="1">
          <mxGeometry x="120" y="1340" width="60" height="30" as="geometry" />
        </mxCell>
        <mxCell id="czz9d_WLZtdWxG6cxCuf-103" value="1" style="text;html=1;strokeColor=none;fillColor=none;align=center;verticalAlign=middle;whiteSpace=wrap;rounded=0;" vertex="1" parent="1">
          <mxGeometry x="120" y="1380" width="60" height="30" as="geometry" />
        </mxCell>
        <mxCell id="czz9d_WLZtdWxG6cxCuf-104" value="1" style="text;html=1;strokeColor=none;fillColor=none;align=center;verticalAlign=middle;whiteSpace=wrap;rounded=0;" vertex="1" parent="1">
          <mxGeometry x="170" y="1450" width="60" height="30" as="geometry" />
        </mxCell>
        <mxCell id="czz9d_WLZtdWxG6cxCuf-105" value="2" style="text;html=1;strokeColor=none;fillColor=none;align=center;verticalAlign=middle;whiteSpace=wrap;rounded=0;" vertex="1" parent="1">
          <mxGeometry x="208" y="1450" width="60" height="30" as="geometry" />
        </mxCell>
        <mxCell id="czz9d_WLZtdWxG6cxCuf-106" value="3" style="text;html=1;strokeColor=none;fillColor=none;align=center;verticalAlign=middle;whiteSpace=wrap;rounded=0;" vertex="1" parent="1">
          <mxGeometry x="110" y="1300" width="60" height="30" as="geometry" />
        </mxCell>
        <mxCell id="czz9d_WLZtdWxG6cxCuf-107" value="4" style="text;html=1;strokeColor=none;fillColor=none;align=center;verticalAlign=middle;whiteSpace=wrap;rounded=0;" vertex="1" parent="1">
          <mxGeometry x="120" y="1260" width="60" height="30" as="geometry" />
        </mxCell>
        <mxCell id="czz9d_WLZtdWxG6cxCuf-108" value="" style="ellipse;whiteSpace=wrap;html=1;aspect=fixed;" vertex="1" parent="1">
          <mxGeometry x="192.5" y="1355" width="15" height="15" as="geometry" />
        </mxCell>
        <mxCell id="czz9d_WLZtdWxG6cxCuf-109" value="" style="ellipse;whiteSpace=wrap;html=1;aspect=fixed;" vertex="1" parent="1">
          <mxGeometry x="232.5" y="1275" width="15" height="15" as="geometry" />
        </mxCell>
        <mxCell id="czz9d_WLZtdWxG6cxCuf-110" value="model&amp;nbsp; = formul = rule" style="endArrow=none;html=1;rounded=0;" edge="1" parent="1">
          <mxGeometry width="50" height="50" relative="1" as="geometry">
            <mxPoint x="340" y="1360" as="sourcePoint" />
            <mxPoint x="460" y="1300" as="targetPoint" />
          </mxGeometry>
        </mxCell>
        <mxCell id="czz9d_WLZtdWxG6cxCuf-111" value="" style="endArrow=none;html=1;rounded=0;" edge="1" parent="1">
          <mxGeometry width="50" height="50" relative="1" as="geometry">
            <mxPoint x="430" y="1360" as="sourcePoint" />
            <mxPoint x="390" y="1300" as="targetPoint" />
          </mxGeometry>
        </mxCell>
        <mxCell id="czz9d_WLZtdWxG6cxCuf-112" value="" style="endArrow=none;html=1;rounded=0;" edge="1" parent="1">
          <mxGeometry width="50" height="50" relative="1" as="geometry">
            <mxPoint x="370" y="1360" as="sourcePoint" />
            <mxPoint x="450" y="1300" as="targetPoint" />
          </mxGeometry>
        </mxCell>
        <mxCell id="czz9d_WLZtdWxG6cxCuf-113" value="data" style="text;html=1;strokeColor=none;fillColor=none;align=center;verticalAlign=middle;whiteSpace=wrap;rounded=0;" vertex="1" parent="1">
          <mxGeometry x="240" y="1250" width="60" height="30" as="geometry" />
        </mxCell>
        <mxCell id="czz9d_WLZtdWxG6cxCuf-114" value="data" style="text;html=1;strokeColor=none;fillColor=none;align=center;verticalAlign=middle;whiteSpace=wrap;rounded=0;" vertex="1" parent="1">
          <mxGeometry x="220" y="1347.5" width="60" height="30" as="geometry" />
        </mxCell>
        <mxCell id="czz9d_WLZtdWxG6cxCuf-115" value="" style="endArrow=none;html=1;rounded=0;" edge="1" parent="1">
          <mxGeometry width="50" height="50" relative="1" as="geometry">
            <mxPoint x="150" y="1460" as="sourcePoint" />
            <mxPoint x="270" y="1220" as="targetPoint" />
          </mxGeometry>
        </mxCell>
        <mxCell id="czz9d_WLZtdWxG6cxCuf-117" value="learning is the process of building a line-formula from given points (data)" style="text;html=1;strokeColor=#d6b656;fillColor=#fff2cc;align=center;verticalAlign=middle;whiteSpace=wrap;rounded=0;" vertex="1" parent="1">
          <mxGeometry x="223" y="1400" width="300" height="30" as="geometry" />
        </mxCell>
        <mxCell id="czz9d_WLZtdWxG6cxCuf-118" value="" style="shape=cylinder3;whiteSpace=wrap;html=1;boundedLbl=1;backgroundOutline=1;size=15;" vertex="1" parent="1">
          <mxGeometry x="148" y="1540" width="92" height="130" as="geometry" />
        </mxCell>
        <mxCell id="czz9d_WLZtdWxG6cxCuf-119" value="" style="endArrow=none;html=1;rounded=0;" edge="1" parent="1">
          <mxGeometry width="50" height="50" relative="1" as="geometry">
            <mxPoint x="230" y="1690" as="sourcePoint" />
            <mxPoint x="230" y="1500" as="targetPoint" />
          </mxGeometry>
        </mxCell>
        <mxCell id="czz9d_WLZtdWxG6cxCuf-120" value="y" style="text;html=1;strokeColor=none;fillColor=none;align=center;verticalAlign=middle;whiteSpace=wrap;rounded=0;" vertex="1" parent="1">
          <mxGeometry x="208" y="1510" width="60" height="30" as="geometry" />
        </mxCell>
        <mxCell id="czz9d_WLZtdWxG6cxCuf-121" value="x1, x2, x3..xn" style="text;html=1;strokeColor=none;fillColor=none;align=center;verticalAlign=middle;whiteSpace=wrap;rounded=0;" vertex="1" parent="1">
          <mxGeometry x="140" y="1510" width="60" height="30" as="geometry" />
        </mxCell>
        <mxCell id="czz9d_WLZtdWxG6cxCuf-122" value="what I want to predict" style="text;html=1;strokeColor=none;fillColor=none;align=center;verticalAlign=middle;whiteSpace=wrap;rounded=0;" vertex="1" parent="1">
          <mxGeometry x="320" y="1540" width="60" height="30" as="geometry" />
        </mxCell>
        <mxCell id="czz9d_WLZtdWxG6cxCuf-123" value="customer churn or not?" style="text;html=1;strokeColor=none;fillColor=none;align=center;verticalAlign=middle;whiteSpace=wrap;rounded=0;" vertex="1" parent="1">
          <mxGeometry x="354" y="1610" width="60" height="30" as="geometry" />
        </mxCell>
        <mxCell id="czz9d_WLZtdWxG6cxCuf-124" value="exam passed" style="text;html=1;strokeColor=none;fillColor=none;align=center;verticalAlign=middle;whiteSpace=wrap;rounded=0;" vertex="1" parent="1">
          <mxGeometry x="354" y="1650" width="60" height="30" as="geometry" />
        </mxCell>
        <mxCell id="czz9d_WLZtdWxG6cxCuf-125" value="hire or not?" style="text;html=1;strokeColor=none;fillColor=none;align=center;verticalAlign=middle;whiteSpace=wrap;rounded=0;" vertex="1" parent="1">
          <mxGeometry x="354" y="1690" width="60" height="30" as="geometry" />
        </mxCell>
        <mxCell id="czz9d_WLZtdWxG6cxCuf-126" value="delay or not?" style="text;html=1;strokeColor=none;fillColor=none;align=center;verticalAlign=middle;whiteSpace=wrap;rounded=0;" vertex="1" parent="1">
          <mxGeometry x="354" y="1724" width="60" height="30" as="geometry" />
        </mxCell>
        <mxCell id="czz9d_WLZtdWxG6cxCuf-127" value="Business Understanding" style="rounded=0;whiteSpace=wrap;html=1;fontSize=22;" vertex="1" parent="1">
          <mxGeometry x="920" y="1240" width="280" height="40" as="geometry" />
        </mxCell>
        <mxCell id="czz9d_WLZtdWxG6cxCuf-128" value="Data Understanding" style="rounded=0;whiteSpace=wrap;html=1;fontSize=22;" vertex="1" parent="1">
          <mxGeometry x="920" y="1280" width="280" height="40" as="geometry" />
        </mxCell>
        <mxCell id="czz9d_WLZtdWxG6cxCuf-129" value="Data processing" style="rounded=0;whiteSpace=wrap;html=1;fontSize=22;" vertex="1" parent="1">
          <mxGeometry x="920" y="1360" width="280" height="40" as="geometry" />
        </mxCell>
        <mxCell id="czz9d_WLZtdWxG6cxCuf-130" value="cleaning" style="rounded=0;whiteSpace=wrap;html=1;fontSize=22;" vertex="1" parent="1">
          <mxGeometry x="1000" y="1400" width="200" height="40" as="geometry" />
        </mxCell>
        <mxCell id="czz9d_WLZtdWxG6cxCuf-131" value="parsing" style="rounded=0;whiteSpace=wrap;html=1;fontSize=22;" vertex="1" parent="1">
          <mxGeometry x="1000" y="1440" width="200" height="40" as="geometry" />
        </mxCell>
        <mxCell id="czz9d_WLZtdWxG6cxCuf-132" value="filling empty" style="rounded=0;whiteSpace=wrap;html=1;fontSize=22;" vertex="1" parent="1">
          <mxGeometry x="1000" y="1480" width="200" height="40" as="geometry" />
        </mxCell>
        <mxCell id="czz9d_WLZtdWxG6cxCuf-133" value="normalizing" style="rounded=0;whiteSpace=wrap;html=1;fontSize=22;" vertex="1" parent="1">
          <mxGeometry x="1000" y="1520" width="200" height="40" as="geometry" />
        </mxCell>
        <mxCell id="czz9d_WLZtdWxG6cxCuf-134" value="transforming" style="rounded=0;whiteSpace=wrap;html=1;fontSize=22;" vertex="1" parent="1">
          <mxGeometry x="1000" y="1560" width="200" height="40" as="geometry" />
        </mxCell>
        <mxCell id="czz9d_WLZtdWxG6cxCuf-135" value="feature engineering" style="rounded=0;whiteSpace=wrap;html=1;fontSize=22;" vertex="1" parent="1">
          <mxGeometry x="1000" y="1600" width="200" height="40" as="geometry" />
        </mxCell>
        <mxCell id="czz9d_WLZtdWxG6cxCuf-136" value="Modelling" style="rounded=0;whiteSpace=wrap;html=1;fontSize=22;" vertex="1" parent="1">
          <mxGeometry x="920" y="1719" width="280" height="40" as="geometry" />
        </mxCell>
        <mxCell id="czz9d_WLZtdWxG6cxCuf-137" value="feature selecting" style="rounded=0;whiteSpace=wrap;html=1;fontSize=22;" vertex="1" parent="1">
          <mxGeometry x="1000" y="1640" width="200" height="40" as="geometry" />
        </mxCell>
        <mxCell id="czz9d_WLZtdWxG6cxCuf-138" value="algorithm select" style="rounded=0;whiteSpace=wrap;html=1;fontSize=22;" vertex="1" parent="1">
          <mxGeometry x="1000" y="1759" width="200" height="40" as="geometry" />
        </mxCell>
        <mxCell id="czz9d_WLZtdWxG6cxCuf-139" value="which algorithm" style="rounded=0;whiteSpace=wrap;html=1;fontSize=22;fillColor=#dae8fc;strokeColor=#6c8ebf;" vertex="1" parent="1">
          <mxGeometry x="1400" y="1240" width="200" height="40" as="geometry" />
        </mxCell>
        <mxCell id="czz9d_WLZtdWxG6cxCuf-140" value="which parameter" style="rounded=0;whiteSpace=wrap;html=1;fontSize=22;fillColor=#dae8fc;strokeColor=#6c8ebf;" vertex="1" parent="1">
          <mxGeometry x="1400" y="1280" width="200" height="40" as="geometry" />
        </mxCell>
        <mxCell id="czz9d_WLZtdWxG6cxCuf-141" value="how much data" style="rounded=0;whiteSpace=wrap;html=1;fontSize=22;fillColor=#dae8fc;strokeColor=#6c8ebf;" vertex="1" parent="1">
          <mxGeometry x="1400" y="1320" width="200" height="40" as="geometry" />
        </mxCell>
        <mxCell id="czz9d_WLZtdWxG6cxCuf-143" value="QUESTIONS" style="rounded=0;whiteSpace=wrap;html=1;fontSize=22;fillColor=#dae8fc;strokeColor=#6c8ebf;" vertex="1" parent="1">
          <mxGeometry x="1400" y="1200" width="200" height="40" as="geometry" />
        </mxCell>
        <mxCell id="czz9d_WLZtdWxG6cxCuf-146" style="edgeStyle=orthogonalEdgeStyle;rounded=0;orthogonalLoop=1;jettySize=auto;html=1;" edge="1" parent="1" source="czz9d_WLZtdWxG6cxCuf-144">
          <mxGeometry relative="1" as="geometry">
            <mxPoint x="1240" y="1900" as="targetPoint" />
          </mxGeometry>
        </mxCell>
        <mxCell id="czz9d_WLZtdWxG6cxCuf-144" value="fit()" style="rounded=0;whiteSpace=wrap;html=1;fontSize=22;" vertex="1" parent="1">
          <mxGeometry x="1000" y="1880" width="200" height="40" as="geometry" />
        </mxCell>
        <mxCell id="czz9d_WLZtdWxG6cxCuf-145" value="predict()" style="rounded=0;whiteSpace=wrap;html=1;fontSize=22;" vertex="1" parent="1">
          <mxGeometry x="1241" y="1880" width="200" height="40" as="geometry" />
        </mxCell>
        <mxCell id="czz9d_WLZtdWxG6cxCuf-147" value="train - test - validation" style="rounded=0;whiteSpace=wrap;html=1;fontSize=22;fillColor=#dae8fc;strokeColor=#6c8ebf;" vertex="1" parent="1">
          <mxGeometry x="1400" y="1400" width="200" height="40" as="geometry" />
        </mxCell>
        <mxCell id="czz9d_WLZtdWxG6cxCuf-163" style="edgeStyle=orthogonalEdgeStyle;rounded=0;orthogonalLoop=1;jettySize=auto;html=1;" edge="1" parent="1" source="czz9d_WLZtdWxG6cxCuf-148" target="czz9d_WLZtdWxG6cxCuf-160">
          <mxGeometry relative="1" as="geometry" />
        </mxCell>
        <mxCell id="czz9d_WLZtdWxG6cxCuf-164" style="edgeStyle=orthogonalEdgeStyle;rounded=0;orthogonalLoop=1;jettySize=auto;html=1;entryX=0;entryY=0.5;entryDx=0;entryDy=0;" edge="1" parent="1" source="czz9d_WLZtdWxG6cxCuf-148" target="czz9d_WLZtdWxG6cxCuf-162">
          <mxGeometry relative="1" as="geometry">
            <Array as="points">
              <mxPoint x="1090" y="2050" />
              <mxPoint x="1090" y="2240" />
            </Array>
          </mxGeometry>
        </mxCell>
        <mxCell id="czz9d_WLZtdWxG6cxCuf-148" value="muallim" style="shape=umlActor;verticalLabelPosition=bottom;verticalAlign=top;html=1;outlineConnect=0;fontSize=22;" vertex="1" parent="1">
          <mxGeometry x="1010" y="2020" width="30" height="60" as="geometry" />
        </mxCell>
        <mxCell id="czz9d_WLZtdWxG6cxCuf-150" value="talebe" style="shape=umlActor;verticalLabelPosition=bottom;verticalAlign=top;html=1;outlineConnect=0;fontSize=22;" vertex="1" parent="1">
          <mxGeometry x="1420" y="2030" width="30" height="60" as="geometry" />
        </mxCell>
        <mxCell id="czz9d_WLZtdWxG6cxCuf-152" value="talebe" style="shape=umlActor;verticalLabelPosition=bottom;verticalAlign=top;html=1;outlineConnect=0;fontSize=22;" vertex="1" parent="1">
          <mxGeometry x="1430" y="2040" width="30" height="60" as="geometry" />
        </mxCell>
        <mxCell id="czz9d_WLZtdWxG6cxCuf-153" value="talebe" style="shape=umlActor;verticalLabelPosition=bottom;verticalAlign=top;html=1;outlineConnect=0;fontSize=22;" vertex="1" parent="1">
          <mxGeometry x="1440" y="2050" width="30" height="60" as="geometry" />
        </mxCell>
        <mxCell id="czz9d_WLZtdWxG6cxCuf-154" value="talebe" style="shape=umlActor;verticalLabelPosition=bottom;verticalAlign=top;html=1;outlineConnect=0;fontSize=22;" vertex="1" parent="1">
          <mxGeometry x="1450" y="2060" width="30" height="60" as="geometry" />
        </mxCell>
        <mxCell id="czz9d_WLZtdWxG6cxCuf-155" value="talebe" style="shape=umlActor;verticalLabelPosition=bottom;verticalAlign=top;html=1;outlineConnect=0;fontSize=22;" vertex="1" parent="1">
          <mxGeometry x="1460" y="2070" width="30" height="60" as="geometry" />
        </mxCell>
        <mxCell id="czz9d_WLZtdWxG6cxCuf-156" value="talebe" style="shape=umlActor;verticalLabelPosition=bottom;verticalAlign=top;html=1;outlineConnect=0;fontSize=22;" vertex="1" parent="1">
          <mxGeometry x="1470" y="2080" width="30" height="60" as="geometry" />
        </mxCell>
        <mxCell id="czz9d_WLZtdWxG6cxCuf-157" value="talebe" style="shape=umlActor;verticalLabelPosition=bottom;verticalAlign=top;html=1;outlineConnect=0;fontSize=22;" vertex="1" parent="1">
          <mxGeometry x="1480" y="2090" width="30" height="60" as="geometry" />
        </mxCell>
        <mxCell id="czz9d_WLZtdWxG6cxCuf-158" value="talebe" style="shape=umlActor;verticalLabelPosition=bottom;verticalAlign=top;html=1;outlineConnect=0;fontSize=22;" vertex="1" parent="1">
          <mxGeometry x="1490" y="2100" width="30" height="60" as="geometry" />
        </mxCell>
        <mxCell id="czz9d_WLZtdWxG6cxCuf-159" value="talebe" style="shape=umlActor;verticalLabelPosition=bottom;verticalAlign=top;html=1;outlineConnect=0;fontSize=22;" vertex="1" parent="1">
          <mxGeometry x="1500" y="2110" width="30" height="60" as="geometry" />
        </mxCell>
        <mxCell id="czz9d_WLZtdWxG6cxCuf-160" value="100 tane question" style="rounded=0;whiteSpace=wrap;html=1;" vertex="1" parent="1">
          <mxGeometry x="1140" y="2010" width="120" height="60" as="geometry" />
        </mxCell>
        <mxCell id="czz9d_WLZtdWxG6cxCuf-161" value="exam" style="rounded=0;whiteSpace=wrap;html=1;fillColor=#d5e8d4;strokeColor=#82b366;" vertex="1" parent="1">
          <mxGeometry x="1270" y="2010" width="120" height="60" as="geometry" />
        </mxCell>
        <mxCell id="czz9d_WLZtdWxG6cxCuf-162" value="exam" style="rounded=0;whiteSpace=wrap;html=1;fillColor=#fff2cc;strokeColor=#d6b656;" vertex="1" parent="1">
          <mxGeometry x="1270" y="2210" width="120" height="60" as="geometry" />
        </mxCell>
        <mxCell id="czz9d_WLZtdWxG6cxCuf-165" value="not very well understood&lt;br&gt;maybe they have memorized&lt;br&gt;THEY MIGHT NOT UNDERSTAND" style="text;html=1;strokeColor=none;fillColor=none;align=center;verticalAlign=middle;whiteSpace=wrap;rounded=0;" vertex="1" parent="1">
          <mxGeometry x="1190" y="2080" width="220" height="60" as="geometry" />
        </mxCell>
        <mxCell id="czz9d_WLZtdWxG6cxCuf-166" value="Correct result. Understood" style="text;html=1;strokeColor=none;fillColor=none;align=center;verticalAlign=middle;whiteSpace=wrap;rounded=0;" vertex="1" parent="1">
          <mxGeometry x="1170" y="2270" width="220" height="30" as="geometry" />
        </mxCell>
        <mxCell id="czz9d_WLZtdWxG6cxCuf-167" value="OVERFITTING" style="text;html=1;strokeColor=none;fillColor=none;align=center;verticalAlign=middle;whiteSpace=wrap;rounded=0;fontStyle=1" vertex="1" parent="1">
          <mxGeometry x="1500" y="2010" width="120" height="60" as="geometry" />
        </mxCell>
        <mxCell id="czz9d_WLZtdWxG6cxCuf-170" value="understanding&lt;br&gt;generalization = GOOD" style="text;html=1;strokeColor=none;fillColor=none;align=center;verticalAlign=middle;whiteSpace=wrap;rounded=0;" vertex="1" parent="1">
          <mxGeometry x="1011" y="260" width="159" height="30" as="geometry" />
        </mxCell>
        <mxCell id="czz9d_WLZtdWxG6cxCuf-171" value="memorize = BAD" style="text;html=1;strokeColor=none;fillColor=none;align=center;verticalAlign=middle;whiteSpace=wrap;rounded=0;" vertex="1" parent="1">
          <mxGeometry x="1011" y="300" width="159" height="30" as="geometry" />
        </mxCell>
        <mxCell id="czz9d_WLZtdWxG6cxCuf-173" value="" style="shape=cylinder3;whiteSpace=wrap;html=1;boundedLbl=1;backgroundOutline=1;size=15;" vertex="1" parent="1">
          <mxGeometry x="360" y="1870" width="92" height="130" as="geometry" />
        </mxCell>
        <mxCell id="czz9d_WLZtdWxG6cxCuf-174" value="" style="endArrow=none;html=1;rounded=0;" edge="1" parent="1">
          <mxGeometry width="50" height="50" relative="1" as="geometry">
            <mxPoint x="442" y="2020" as="sourcePoint" />
            <mxPoint x="442" y="1830" as="targetPoint" />
          </mxGeometry>
        </mxCell>
        <mxCell id="czz9d_WLZtdWxG6cxCuf-175" value="y" style="text;html=1;strokeColor=none;fillColor=none;align=center;verticalAlign=middle;whiteSpace=wrap;rounded=0;" vertex="1" parent="1">
          <mxGeometry x="420" y="1840" width="60" height="30" as="geometry" />
        </mxCell>
        <mxCell id="czz9d_WLZtdWxG6cxCuf-176" value="x1, x2, x3..xn" style="text;html=1;strokeColor=none;fillColor=none;align=center;verticalAlign=middle;whiteSpace=wrap;rounded=0;" vertex="1" parent="1">
          <mxGeometry x="352" y="1840" width="60" height="30" as="geometry" />
        </mxCell>
        <mxCell id="czz9d_WLZtdWxG6cxCuf-177" value="" style="shape=cylinder3;whiteSpace=wrap;html=1;boundedLbl=1;backgroundOutline=1;size=15;" vertex="1" parent="1">
          <mxGeometry x="131" y="1870" width="92" height="130" as="geometry" />
        </mxCell>
        <mxCell id="czz9d_WLZtdWxG6cxCuf-178" value="" style="endArrow=none;html=1;rounded=0;" edge="1" parent="1">
          <mxGeometry width="50" height="50" relative="1" as="geometry">
            <mxPoint x="89" y="1940" as="sourcePoint" />
            <mxPoint x="299" y="1940" as="targetPoint" />
          </mxGeometry>
        </mxCell>
        <mxCell id="czz9d_WLZtdWxG6cxCuf-179" value="train" style="text;html=1;strokeColor=none;fillColor=none;align=center;verticalAlign=middle;whiteSpace=wrap;rounded=0;" vertex="1" parent="1">
          <mxGeometry x="150" y="1910" width="60" height="30" as="geometry" />
        </mxCell>
        <mxCell id="czz9d_WLZtdWxG6cxCuf-180" value="test" style="text;html=1;strokeColor=none;fillColor=none;align=center;verticalAlign=middle;whiteSpace=wrap;rounded=0;" vertex="1" parent="1">
          <mxGeometry x="150" y="1950" width="60" height="30" as="geometry" />
        </mxCell>
        <mxCell id="czz9d_WLZtdWxG6cxCuf-181" value="original" style="shape=cylinder3;whiteSpace=wrap;html=1;boundedLbl=1;backgroundOutline=1;size=15;" vertex="1" parent="1">
          <mxGeometry x="35" y="2370" width="92" height="130" as="geometry" />
        </mxCell>
        <mxCell id="czz9d_WLZtdWxG6cxCuf-182" value="train" style="shape=cylinder3;whiteSpace=wrap;html=1;boundedLbl=1;backgroundOutline=1;size=15;" vertex="1" parent="1">
          <mxGeometry x="161" y="2370" width="92" height="70" as="geometry" />
        </mxCell>
        <mxCell id="czz9d_WLZtdWxG6cxCuf-183" value="test" style="shape=cylinder3;whiteSpace=wrap;html=1;boundedLbl=1;backgroundOutline=1;size=15;fillColor=#d5e8d4;strokeColor=#82b366;" vertex="1" parent="1">
          <mxGeometry x="161" y="2440" width="92" height="70" as="geometry" />
        </mxCell>
        <mxCell id="czz9d_WLZtdWxG6cxCuf-197" value="fit()" style="edgeStyle=orthogonalEdgeStyle;rounded=0;orthogonalLoop=1;jettySize=auto;html=1;entryX=0.25;entryY=0;entryDx=0;entryDy=0;" edge="1" parent="1" source="czz9d_WLZtdWxG6cxCuf-184" target="czz9d_WLZtdWxG6cxCuf-196">
          <mxGeometry relative="1" as="geometry" />
        </mxCell>
        <mxCell id="czz9d_WLZtdWxG6cxCuf-233" value="WRONG APPROACH !!!! OVERFIT = MEMORIZE" style="edgeStyle=orthogonalEdgeStyle;rounded=0;orthogonalLoop=1;jettySize=auto;html=1;entryX=0.5;entryY=0;entryDx=0;entryDy=0;" edge="1" parent="1" source="czz9d_WLZtdWxG6cxCuf-184" target="czz9d_WLZtdWxG6cxCuf-199">
          <mxGeometry relative="1" as="geometry">
            <Array as="points">
              <mxPoint x="357" y="2280" />
              <mxPoint x="757" y="2280" />
            </Array>
          </mxGeometry>
        </mxCell>
        <mxCell id="czz9d_WLZtdWxG6cxCuf-184" value="trainX" style="shape=cylinder3;whiteSpace=wrap;html=1;boundedLbl=1;backgroundOutline=1;size=15;" vertex="1" parent="1">
          <mxGeometry x="311" y="2360" width="92" height="70" as="geometry" />
        </mxCell>
        <mxCell id="czz9d_WLZtdWxG6cxCuf-185" value="" style="endArrow=none;html=1;rounded=0;" edge="1" parent="1">
          <mxGeometry width="50" height="50" relative="1" as="geometry">
            <mxPoint x="392" y="2440" as="sourcePoint" />
            <mxPoint x="392" y="2350" as="targetPoint" />
          </mxGeometry>
        </mxCell>
        <mxCell id="czz9d_WLZtdWxG6cxCuf-198" value="fit()" style="edgeStyle=orthogonalEdgeStyle;rounded=0;orthogonalLoop=1;jettySize=auto;html=1;entryX=0.25;entryY=1;entryDx=0;entryDy=0;" edge="1" parent="1" source="czz9d_WLZtdWxG6cxCuf-186" target="czz9d_WLZtdWxG6cxCuf-196">
          <mxGeometry relative="1" as="geometry" />
        </mxCell>
        <mxCell id="czz9d_WLZtdWxG6cxCuf-186" value="train_y" style="text;html=1;strokeColor=none;fillColor=none;align=center;verticalAlign=middle;whiteSpace=wrap;rounded=0;" vertex="1" parent="1">
          <mxGeometry x="409" y="2390" width="60" height="30" as="geometry" />
        </mxCell>
        <mxCell id="czz9d_WLZtdWxG6cxCuf-201" value="predict()" style="edgeStyle=orthogonalEdgeStyle;rounded=0;orthogonalLoop=1;jettySize=auto;html=1;entryX=0.5;entryY=1;entryDx=0;entryDy=0;" edge="1" parent="1" source="czz9d_WLZtdWxG6cxCuf-187" target="czz9d_WLZtdWxG6cxCuf-199">
          <mxGeometry relative="1" as="geometry" />
        </mxCell>
        <mxCell id="czz9d_WLZtdWxG6cxCuf-187" value="testX" style="shape=cylinder3;whiteSpace=wrap;html=1;boundedLbl=1;backgroundOutline=1;size=15;" vertex="1" parent="1">
          <mxGeometry x="311" y="2450" width="92" height="70" as="geometry" />
        </mxCell>
        <mxCell id="czz9d_WLZtdWxG6cxCuf-188" value="" style="endArrow=none;html=1;rounded=0;" edge="1" parent="1">
          <mxGeometry width="50" height="50" relative="1" as="geometry">
            <mxPoint x="392" y="2530" as="sourcePoint" />
            <mxPoint x="392" y="2440" as="targetPoint" />
          </mxGeometry>
        </mxCell>
        <mxCell id="czz9d_WLZtdWxG6cxCuf-205" value="COMPARE" style="edgeStyle=orthogonalEdgeStyle;rounded=0;orthogonalLoop=1;jettySize=auto;html=1;entryX=0;entryY=0.5;entryDx=0;entryDy=0;" edge="1" parent="1" source="czz9d_WLZtdWxG6cxCuf-189" target="czz9d_WLZtdWxG6cxCuf-203">
          <mxGeometry relative="1" as="geometry">
            <Array as="points">
              <mxPoint x="439" y="2570" />
              <mxPoint x="507" y="2570" />
              <mxPoint x="507" y="2600" />
            </Array>
          </mxGeometry>
        </mxCell>
        <mxCell id="czz9d_WLZtdWxG6cxCuf-189" value="test_y" style="text;html=1;strokeColor=none;fillColor=none;align=center;verticalAlign=middle;whiteSpace=wrap;rounded=0;" vertex="1" parent="1">
          <mxGeometry x="409" y="2480" width="60" height="30" as="geometry" />
        </mxCell>
        <mxCell id="czz9d_WLZtdWxG6cxCuf-190" style="edgeStyle=orthogonalEdgeStyle;rounded=0;orthogonalLoop=1;jettySize=auto;html=1;entryX=0.007;entryY=0.466;entryDx=0;entryDy=0;entryPerimeter=0;" edge="1" parent="1" source="czz9d_WLZtdWxG6cxCuf-181" target="czz9d_WLZtdWxG6cxCuf-182">
          <mxGeometry relative="1" as="geometry" />
        </mxCell>
        <mxCell id="czz9d_WLZtdWxG6cxCuf-191" style="edgeStyle=orthogonalEdgeStyle;rounded=0;orthogonalLoop=1;jettySize=auto;html=1;entryX=0;entryY=0.5;entryDx=0;entryDy=0;entryPerimeter=0;" edge="1" parent="1" source="czz9d_WLZtdWxG6cxCuf-181" target="czz9d_WLZtdWxG6cxCuf-183">
          <mxGeometry relative="1" as="geometry" />
        </mxCell>
        <mxCell id="czz9d_WLZtdWxG6cxCuf-195" value="" style="endArrow=classic;html=1;rounded=0;" edge="1" parent="1">
          <mxGeometry width="50" height="50" relative="1" as="geometry">
            <mxPoint x="17" y="2490" as="sourcePoint" />
            <mxPoint x="17" y="2390" as="targetPoint" />
          </mxGeometry>
        </mxCell>
        <mxCell id="czz9d_WLZtdWxG6cxCuf-200" style="edgeStyle=orthogonalEdgeStyle;rounded=0;orthogonalLoop=1;jettySize=auto;html=1;entryX=0;entryY=0.5;entryDx=0;entryDy=0;" edge="1" parent="1" source="czz9d_WLZtdWxG6cxCuf-196" target="czz9d_WLZtdWxG6cxCuf-199">
          <mxGeometry relative="1" as="geometry" />
        </mxCell>
        <mxCell id="czz9d_WLZtdWxG6cxCuf-196" value="algorithm" style="rounded=0;whiteSpace=wrap;html=1;" vertex="1" parent="1">
          <mxGeometry x="557" y="2380" width="120" height="60" as="geometry" />
        </mxCell>
        <mxCell id="czz9d_WLZtdWxG6cxCuf-202" style="edgeStyle=orthogonalEdgeStyle;rounded=0;orthogonalLoop=1;jettySize=auto;html=1;entryX=1;entryY=0.5;entryDx=0;entryDy=0;" edge="1" parent="1" source="czz9d_WLZtdWxG6cxCuf-199" target="czz9d_WLZtdWxG6cxCuf-203">
          <mxGeometry relative="1" as="geometry">
            <mxPoint x="817" y="2550" as="targetPoint" />
            <Array as="points">
              <mxPoint x="807" y="2410" />
              <mxPoint x="807" y="2600" />
            </Array>
          </mxGeometry>
        </mxCell>
        <mxCell id="czz9d_WLZtdWxG6cxCuf-199" value="model" style="rhombus;whiteSpace=wrap;html=1;" vertex="1" parent="1">
          <mxGeometry x="717" y="2370" width="80" height="80" as="geometry" />
        </mxCell>
        <mxCell id="czz9d_WLZtdWxG6cxCuf-203" value="result" style="shape=parallelogram;perimeter=parallelogramPerimeter;whiteSpace=wrap;html=1;fixedSize=1;" vertex="1" parent="1">
          <mxGeometry x="627" y="2570" width="120" height="60" as="geometry" />
        </mxCell>
        <mxCell id="czz9d_WLZtdWxG6cxCuf-206" value="1" style="rounded=0;whiteSpace=wrap;html=1;fillColor=#fff2cc;strokeColor=#d6b656;fontStyle=1;fontSize=19;" vertex="1" parent="1">
          <mxGeometry x="131" y="2360" width="30" height="30" as="geometry" />
        </mxCell>
        <mxCell id="czz9d_WLZtdWxG6cxCuf-207" value="2" style="rounded=0;whiteSpace=wrap;html=1;fillColor=#fff2cc;strokeColor=#d6b656;fontStyle=1;fontSize=19;" vertex="1" parent="1">
          <mxGeometry x="407" y="2350" width="30" height="30" as="geometry" />
        </mxCell>
        <mxCell id="czz9d_WLZtdWxG6cxCuf-208" value="1" style="rounded=0;whiteSpace=wrap;html=1;fillColor=#fff2cc;strokeColor=#d6b656;fontStyle=1;fontSize=19;" vertex="1" parent="1">
          <mxGeometry x="37" y="2560" width="30" height="30" as="geometry" />
        </mxCell>
        <mxCell id="czz9d_WLZtdWxG6cxCuf-209" value="Split train / test" style="rounded=0;whiteSpace=wrap;html=1;fillColor=#fff2cc;strokeColor=#d6b656;fontStyle=1;fontSize=19;" vertex="1" parent="1">
          <mxGeometry x="67" y="2560" width="340" height="30" as="geometry" />
        </mxCell>
        <mxCell id="czz9d_WLZtdWxG6cxCuf-210" value="2" style="rounded=0;whiteSpace=wrap;html=1;fillColor=#fff2cc;strokeColor=#d6b656;fontStyle=1;fontSize=19;" vertex="1" parent="1">
          <mxGeometry x="37" y="2590" width="30" height="30" as="geometry" />
        </mxCell>
        <mxCell id="czz9d_WLZtdWxG6cxCuf-211" value="Split Input/output" style="rounded=0;whiteSpace=wrap;html=1;fillColor=#fff2cc;strokeColor=#d6b656;fontStyle=1;fontSize=19;" vertex="1" parent="1">
          <mxGeometry x="67" y="2590" width="340" height="30" as="geometry" />
        </mxCell>
        <mxCell id="czz9d_WLZtdWxG6cxCuf-212" value="10, 10000" style="text;html=1;strokeColor=none;fillColor=none;align=center;verticalAlign=middle;whiteSpace=wrap;rounded=0;" vertex="1" parent="1">
          <mxGeometry x="47" y="2370" width="60" height="30" as="geometry" />
        </mxCell>
        <mxCell id="czz9d_WLZtdWxG6cxCuf-213" value="10, 5000" style="text;html=1;strokeColor=none;fillColor=none;align=center;verticalAlign=middle;whiteSpace=wrap;rounded=0;" vertex="1" parent="1">
          <mxGeometry x="177" y="2370" width="60" height="30" as="geometry" />
        </mxCell>
        <mxCell id="czz9d_WLZtdWxG6cxCuf-214" value="10, 5000" style="text;html=1;strokeColor=none;fillColor=none;align=center;verticalAlign=middle;whiteSpace=wrap;rounded=0;" vertex="1" parent="1">
          <mxGeometry x="177" y="2440" width="60" height="30" as="geometry" />
        </mxCell>
        <mxCell id="czz9d_WLZtdWxG6cxCuf-215" value="9, 5000" style="text;html=1;strokeColor=none;fillColor=none;align=center;verticalAlign=middle;whiteSpace=wrap;rounded=0;" vertex="1" parent="1">
          <mxGeometry x="317" y="2360" width="60" height="30" as="geometry" />
        </mxCell>
        <mxCell id="czz9d_WLZtdWxG6cxCuf-216" value="1, 5000" style="text;html=1;strokeColor=none;fillColor=none;align=center;verticalAlign=middle;whiteSpace=wrap;rounded=0;" vertex="1" parent="1">
          <mxGeometry x="402" y="2410" width="60" height="30" as="geometry" />
        </mxCell>
        <mxCell id="czz9d_WLZtdWxG6cxCuf-217" value="3" style="rounded=0;whiteSpace=wrap;html=1;fillColor=#fff2cc;strokeColor=#d6b656;fontStyle=1;fontSize=19;" vertex="1" parent="1">
          <mxGeometry x="507" y="2370" width="30" height="30" as="geometry" />
        </mxCell>
        <mxCell id="czz9d_WLZtdWxG6cxCuf-218" value="3" style="rounded=0;whiteSpace=wrap;html=1;fillColor=#fff2cc;strokeColor=#d6b656;fontStyle=1;fontSize=19;" vertex="1" parent="1">
          <mxGeometry x="37" y="2620" width="30" height="30" as="geometry" />
        </mxCell>
        <mxCell id="czz9d_WLZtdWxG6cxCuf-219" value="Fit with &quot;TRAIN&quot; table" style="rounded=0;whiteSpace=wrap;html=1;fillColor=#fff2cc;strokeColor=#d6b656;fontStyle=1;fontSize=19;" vertex="1" parent="1">
          <mxGeometry x="67" y="2620" width="340" height="30" as="geometry" />
        </mxCell>
        <mxCell id="czz9d_WLZtdWxG6cxCuf-220" value="4" style="rounded=0;whiteSpace=wrap;html=1;fillColor=#fff2cc;strokeColor=#d6b656;fontStyle=1;fontSize=19;" vertex="1" parent="1">
          <mxGeometry x="37" y="2650" width="30" height="30" as="geometry" />
        </mxCell>
        <mxCell id="czz9d_WLZtdWxG6cxCuf-221" value="Predict with &quot;TEST&quot; table" style="rounded=0;whiteSpace=wrap;html=1;fillColor=#fff2cc;strokeColor=#d6b656;fontStyle=1;fontSize=19;" vertex="1" parent="1">
          <mxGeometry x="67" y="2650" width="340" height="30" as="geometry" />
        </mxCell>
        <mxCell id="czz9d_WLZtdWxG6cxCuf-222" value="4" style="rounded=0;whiteSpace=wrap;html=1;fillColor=#fff2cc;strokeColor=#d6b656;fontStyle=1;fontSize=19;" vertex="1" parent="1">
          <mxGeometry x="642" y="2490" width="30" height="30" as="geometry" />
        </mxCell>
        <mxCell id="czz9d_WLZtdWxG6cxCuf-223" value="5" style="rounded=0;whiteSpace=wrap;html=1;fillColor=#fff2cc;strokeColor=#d6b656;fontStyle=1;fontSize=19;" vertex="1" parent="1">
          <mxGeometry x="37" y="2680" width="30" height="30" as="geometry" />
        </mxCell>
        <mxCell id="czz9d_WLZtdWxG6cxCuf-224" value="Evaluate the results (test -&amp;gt; prediction)" style="rounded=0;whiteSpace=wrap;html=1;fillColor=#fff2cc;strokeColor=#d6b656;fontStyle=0;fontSize=19;" vertex="1" parent="1">
          <mxGeometry x="67" y="2680" width="340" height="30" as="geometry" />
        </mxCell>
        <mxCell id="czz9d_WLZtdWxG6cxCuf-230" style="edgeStyle=orthogonalEdgeStyle;rounded=0;orthogonalLoop=1;jettySize=auto;html=1;entryX=0.5;entryY=0;entryDx=0;entryDy=0;" edge="1" parent="1" source="czz9d_WLZtdWxG6cxCuf-225" target="czz9d_WLZtdWxG6cxCuf-229">
          <mxGeometry relative="1" as="geometry" />
        </mxCell>
        <mxCell id="czz9d_WLZtdWxG6cxCuf-225" value="5" style="rounded=0;whiteSpace=wrap;html=1;fillColor=#fff2cc;strokeColor=#d6b656;fontStyle=1;fontSize=19;" vertex="1" parent="1">
          <mxGeometry x="547" y="2570" width="30" height="30" as="geometry" />
        </mxCell>
        <mxCell id="czz9d_WLZtdWxG6cxCuf-227" value="" style="endArrow=none;dashed=1;html=1;dashPattern=1 3;strokeWidth=2;rounded=0;" edge="1" parent="1">
          <mxGeometry width="50" height="50" relative="1" as="geometry">
            <mxPoint x="417" y="2510" as="sourcePoint" />
            <mxPoint x="467" y="2460" as="targetPoint" />
          </mxGeometry>
        </mxCell>
        <mxCell id="czz9d_WLZtdWxG6cxCuf-228" value="" style="endArrow=none;dashed=1;html=1;dashPattern=1 3;strokeWidth=2;rounded=0;" edge="1" parent="1">
          <mxGeometry width="50" height="50" relative="1" as="geometry">
            <mxPoint x="467" y="2520" as="sourcePoint" />
            <mxPoint x="427" y="2460" as="targetPoint" />
          </mxGeometry>
        </mxCell>
        <mxCell id="czz9d_WLZtdWxG6cxCuf-229" value="%70" style="text;html=1;strokeColor=none;fillColor=none;align=center;verticalAlign=middle;whiteSpace=wrap;rounded=0;" vertex="1" parent="1">
          <mxGeometry x="527" y="2630" width="60" height="30" as="geometry" />
        </mxCell>
        <mxCell id="czz9d_WLZtdWxG6cxCuf-231" value="why accuracy changes" style="rounded=0;whiteSpace=wrap;html=1;fontSize=22;fillColor=#dae8fc;strokeColor=#6c8ebf;" vertex="1" parent="1">
          <mxGeometry x="1400" y="1440" width="200" height="40" as="geometry" />
        </mxCell>
        <mxCell id="czz9d_WLZtdWxG6cxCuf-232" value="metrics" style="rounded=0;whiteSpace=wrap;html=1;fontSize=22;fillColor=#dae8fc;strokeColor=#6c8ebf;" vertex="1" parent="1">
          <mxGeometry x="1400" y="1480" width="200" height="40" as="geometry" />
        </mxCell>
        <mxCell id="czz9d_WLZtdWxG6cxCuf-234" value="" style="sketch=0;pointerEvents=1;shadow=0;dashed=0;html=1;strokeColor=none;fillColor=#505050;labelPosition=center;verticalLabelPosition=bottom;verticalAlign=top;outlineConnect=0;align=center;shape=mxgraph.office.concepts.address_book;" vertex="1" parent="1">
          <mxGeometry x="404.5" y="2126" width="55" height="44" as="geometry" />
        </mxCell>
        <mxCell id="czz9d_WLZtdWxG6cxCuf-236" value="MEMORIZE" style="edgeStyle=orthogonalEdgeStyle;rounded=0;orthogonalLoop=1;jettySize=auto;html=1;" edge="1" parent="1" source="czz9d_WLZtdWxG6cxCuf-235" target="czz9d_WLZtdWxG6cxCuf-234">
          <mxGeometry relative="1" as="geometry" />
        </mxCell>
        <mxCell id="czz9d_WLZtdWxG6cxCuf-241" style="edgeStyle=orthogonalEdgeStyle;rounded=0;orthogonalLoop=1;jettySize=auto;html=1;" edge="1" parent="1" source="czz9d_WLZtdWxG6cxCuf-235" target="czz9d_WLZtdWxG6cxCuf-239">
          <mxGeometry relative="1" as="geometry" />
        </mxCell>
        <mxCell id="czz9d_WLZtdWxG6cxCuf-235" value="PEOPLE" style="shape=umlActor;verticalLabelPosition=bottom;verticalAlign=top;html=1;outlineConnect=0;" vertex="1" parent="1">
          <mxGeometry x="597" y="2150" width="30" height="60" as="geometry" />
        </mxCell>
        <mxCell id="czz9d_WLZtdWxG6cxCuf-237" value="%90" style="text;html=1;strokeColor=none;fillColor=none;align=center;verticalAlign=middle;whiteSpace=wrap;rounded=0;" vertex="1" parent="1">
          <mxGeometry x="527" y="2120" width="60" height="30" as="geometry" />
        </mxCell>
        <mxCell id="czz9d_WLZtdWxG6cxCuf-239" value="" style="sketch=0;pointerEvents=1;shadow=0;dashed=0;html=1;strokeColor=none;fillColor=#505050;labelPosition=center;verticalLabelPosition=bottom;verticalAlign=top;outlineConnect=0;align=center;shape=mxgraph.office.communications.offline_address_book;" vertex="1" parent="1">
          <mxGeometry x="700" y="2126" width="59" height="53" as="geometry" />
        </mxCell>
        <mxCell id="czz9d_WLZtdWxG6cxCuf-240" value="out of book" style="text;html=1;strokeColor=none;fillColor=none;align=center;verticalAlign=middle;whiteSpace=wrap;rounded=0;" vertex="1" parent="1">
          <mxGeometry x="699" y="2085" width="60" height="30" as="geometry" />
        </mxCell>
        <mxCell id="czz9d_WLZtdWxG6cxCuf-243" style="edgeStyle=orthogonalEdgeStyle;rounded=0;orthogonalLoop=1;jettySize=auto;html=1;entryX=0.5;entryY=0;entryDx=0;entryDy=0;" edge="1" parent="1" source="czz9d_WLZtdWxG6cxCuf-242" target="czz9d_WLZtdWxG6cxCuf-237">
          <mxGeometry relative="1" as="geometry">
            <Array as="points">
              <mxPoint x="669" y="2100" />
              <mxPoint x="557" y="2100" />
            </Array>
          </mxGeometry>
        </mxCell>
        <mxCell id="czz9d_WLZtdWxG6cxCuf-242" value="%60" style="text;html=1;strokeColor=none;fillColor=none;align=center;verticalAlign=middle;whiteSpace=wrap;rounded=0;" vertex="1" parent="1">
          <mxGeometry x="639" y="2115" width="60" height="30" as="geometry" />
        </mxCell>
        <mxCell id="czz9d_WLZtdWxG6cxCuf-244" value="difference between those two is the level of overfitting" style="text;html=1;strokeColor=none;fillColor=none;align=center;verticalAlign=middle;whiteSpace=wrap;rounded=0;" vertex="1" parent="1">
          <mxGeometry x="520" y="2065" width="178" height="30" as="geometry" />
        </mxCell>
        <mxCell id="czz9d_WLZtdWxG6cxCuf-245" value="imbalanced" style="rounded=0;whiteSpace=wrap;html=1;fontSize=22;fillColor=#dae8fc;strokeColor=#6c8ebf;" vertex="1" parent="1">
          <mxGeometry x="1400" y="1520" width="200" height="40" as="geometry" />
        </mxCell>
        <mxCell id="czz9d_WLZtdWxG6cxCuf-248" style="edgeStyle=orthogonalEdgeStyle;rounded=0;orthogonalLoop=1;jettySize=auto;html=1;" edge="1" parent="1" source="czz9d_WLZtdWxG6cxCuf-246" target="czz9d_WLZtdWxG6cxCuf-247">
          <mxGeometry relative="1" as="geometry" />
        </mxCell>
        <mxCell id="czz9d_WLZtdWxG6cxCuf-246" value="passanger" style="shape=umlActor;verticalLabelPosition=bottom;verticalAlign=top;html=1;outlineConnect=0;" vertex="1" parent="1">
          <mxGeometry x="107" y="2850" width="30" height="60" as="geometry" />
        </mxCell>
        <mxCell id="czz9d_WLZtdWxG6cxCuf-247" value="DELAY" style="rounded=0;whiteSpace=wrap;html=1;" vertex="1" parent="1">
          <mxGeometry x="268" y="2850" width="120" height="60" as="geometry" />
        </mxCell>
        <mxCell id="czz9d_WLZtdWxG6cxCuf-249" value="angry" style="text;html=1;strokeColor=none;fillColor=none;align=center;verticalAlign=middle;whiteSpace=wrap;rounded=0;" vertex="1" parent="1">
          <mxGeometry x="180" y="2940" width="60" height="30" as="geometry" />
        </mxCell>
        <mxCell id="czz9d_WLZtdWxG6cxCuf-250" value="delay &amp;gt; 4" style="text;html=1;strokeColor=none;fillColor=none;align=center;verticalAlign=middle;whiteSpace=wrap;rounded=0;" vertex="1" parent="1">
          <mxGeometry x="116" y="2980" width="60" height="30" as="geometry" />
        </mxCell>
        <mxCell id="czz9d_WLZtdWxG6cxCuf-251" value="meal" style="text;html=1;strokeColor=#b85450;fillColor=#f8cecc;align=center;verticalAlign=middle;whiteSpace=wrap;rounded=0;" vertex="1" parent="1">
          <mxGeometry x="232.5" y="2980" width="127.5" height="30" as="geometry" />
        </mxCell>
        <mxCell id="czz9d_WLZtdWxG6cxCuf-252" value="delay &amp;gt; 8" style="text;html=1;strokeColor=none;fillColor=none;align=center;verticalAlign=middle;whiteSpace=wrap;rounded=0;" vertex="1" parent="1">
          <mxGeometry x="117" y="3010" width="60" height="30" as="geometry" />
        </mxCell>
        <mxCell id="czz9d_WLZtdWxG6cxCuf-253" value="meal+money" style="text;html=1;strokeColor=#b85450;fillColor=#f8cecc;align=center;verticalAlign=middle;whiteSpace=wrap;rounded=0;" vertex="1" parent="1">
          <mxGeometry x="232.5" y="3010" width="127.5" height="30" as="geometry" />
        </mxCell>
        <mxCell id="czz9d_WLZtdWxG6cxCuf-254" value="delay &amp;gt; 12" style="text;html=1;strokeColor=none;fillColor=none;align=center;verticalAlign=middle;whiteSpace=wrap;rounded=0;" vertex="1" parent="1">
          <mxGeometry x="117" y="3040" width="60" height="30" as="geometry" />
        </mxCell>
        <mxCell id="czz9d_WLZtdWxG6cxCuf-255" value="meal+money+hotel" style="text;html=1;strokeColor=#b85450;fillColor=#f8cecc;align=center;verticalAlign=middle;whiteSpace=wrap;rounded=0;" vertex="1" parent="1">
          <mxGeometry x="232.5" y="3040" width="127.5" height="30" as="geometry" />
        </mxCell>
        <mxCell id="czz9d_WLZtdWxG6cxCuf-256" value="passanger" style="shape=umlActor;verticalLabelPosition=bottom;verticalAlign=top;html=1;outlineConnect=0;" vertex="1" parent="1">
          <mxGeometry x="177" y="3160" width="30" height="60" as="geometry" />
        </mxCell>
        <mxCell id="czz9d_WLZtdWxG6cxCuf-257" value="" style="endArrow=classic;html=1;rounded=0;" edge="1" parent="1">
          <mxGeometry width="50" height="50" relative="1" as="geometry">
            <mxPoint x="150" y="3300" as="sourcePoint" />
            <mxPoint x="680" y="3300" as="targetPoint" />
          </mxGeometry>
        </mxCell>
        <mxCell id="czz9d_WLZtdWxG6cxCuf-258" value="" style="shape=mxgraph.signs.transportation.airplane_1;html=1;pointerEvents=1;fillColor=#000000;strokeColor=none;verticalLabelPosition=bottom;verticalAlign=top;align=center;" vertex="1" parent="1">
          <mxGeometry x="608" y="3220" width="99" height="35" as="geometry" />
        </mxCell>
        <mxCell id="czz9d_WLZtdWxG6cxCuf-259" value="" style="html=1;verticalLabelPosition=bottom;align=center;labelBackgroundColor=#ffffff;verticalAlign=top;strokeWidth=2;strokeColor=#0080F0;shadow=0;dashed=0;shape=mxgraph.ios7.icons.home;" vertex="1" parent="1">
          <mxGeometry x="168" y="3270" width="24" height="25.5" as="geometry" />
        </mxCell>
        <mxCell id="czz9d_WLZtdWxG6cxCuf-260" value="" style="image;points=[];aspect=fixed;html=1;align=center;shadow=0;dashed=0;image=img/lib/allied_telesis/buildings/Long_Building.svg;" vertex="1" parent="1">
          <mxGeometry x="360" y="3230" width="125.39999999999999" height="129.60000000000002" as="geometry" />
        </mxCell>
        <mxCell id="czz9d_WLZtdWxG6cxCuf-261" value="12" style="text;html=1;strokeColor=none;fillColor=none;align=center;verticalAlign=middle;whiteSpace=wrap;rounded=0;" vertex="1" parent="1">
          <mxGeometry x="567" y="3160" width="60" height="30" as="geometry" />
        </mxCell>
        <mxCell id="czz9d_WLZtdWxG6cxCuf-262" value="9" style="text;html=1;strokeColor=none;fillColor=none;align=center;verticalAlign=middle;whiteSpace=wrap;rounded=0;" vertex="1" parent="1">
          <mxGeometry x="370" y="3170" width="60" height="30" as="geometry" />
        </mxCell>
        <mxCell id="czz9d_WLZtdWxG6cxCuf-263" value="8" style="text;html=1;strokeColor=none;fillColor=none;align=center;verticalAlign=middle;whiteSpace=wrap;rounded=0;" vertex="1" parent="1">
          <mxGeometry x="210" y="3170" width="60" height="30" as="geometry" />
        </mxCell>
        <mxCell id="czz9d_WLZtdWxG6cxCuf-265" value="" style="shape=mxgraph.signs.transportation.airplane_1;html=1;pointerEvents=1;fillColor=#000000;strokeColor=none;verticalLabelPosition=bottom;verticalAlign=top;align=center;" vertex="1" parent="1">
          <mxGeometry x="268" y="3440" width="99" height="35" as="geometry" />
        </mxCell>
        <mxCell id="czz9d_WLZtdWxG6cxCuf-266" value="" style="shape=mxgraph.signs.transportation.airplane_1;html=1;pointerEvents=1;fillColor=#000000;strokeColor=none;verticalLabelPosition=bottom;verticalAlign=top;align=center;" vertex="1" parent="1">
          <mxGeometry x="303" y="3450" width="99" height="35" as="geometry" />
        </mxCell>
        <mxCell id="czz9d_WLZtdWxG6cxCuf-267" value="" style="shape=mxgraph.signs.transportation.airplane_1;html=1;pointerEvents=1;fillColor=#000000;strokeColor=none;verticalLabelPosition=bottom;verticalAlign=top;align=center;" vertex="1" parent="1">
          <mxGeometry x="321" y="3460" width="99" height="35" as="geometry" />
        </mxCell>
        <mxCell id="czz9d_WLZtdWxG6cxCuf-268" value="" style="shape=mxgraph.signs.transportation.airplane_1;html=1;pointerEvents=1;fillColor=#000000;strokeColor=none;verticalLabelPosition=bottom;verticalAlign=top;align=center;" vertex="1" parent="1">
          <mxGeometry x="334.5" y="3470" width="99" height="35" as="geometry" />
        </mxCell>
        <mxCell id="czz9d_WLZtdWxG6cxCuf-269" value="" style="shape=mxgraph.signs.transportation.airplane_1;html=1;pointerEvents=1;fillColor=#000000;strokeColor=none;verticalLabelPosition=bottom;verticalAlign=top;align=center;" vertex="1" parent="1">
          <mxGeometry x="360" y="3485" width="99" height="35" as="geometry" />
        </mxCell>
        <mxCell id="czz9d_WLZtdWxG6cxCuf-270" value="" style="shape=mxgraph.signs.transportation.airplane_1;html=1;pointerEvents=1;fillColor=#000000;strokeColor=none;verticalLabelPosition=bottom;verticalAlign=top;align=center;" vertex="1" parent="1">
          <mxGeometry x="377" y="3495" width="99" height="35" as="geometry" />
        </mxCell>
        <mxCell id="czz9d_WLZtdWxG6cxCuf-271" value="" style="shape=mxgraph.signs.transportation.airplane_1;html=1;pointerEvents=1;fillColor=#000000;strokeColor=none;verticalLabelPosition=bottom;verticalAlign=top;align=center;" vertex="1" parent="1">
          <mxGeometry x="389.5" y="3505" width="99" height="35" as="geometry" />
        </mxCell>
        <mxCell id="czz9d_WLZtdWxG6cxCuf-272" value="" style="shape=mxgraph.signs.transportation.airplane_1;html=1;pointerEvents=1;fillColor=#000000;strokeColor=none;verticalLabelPosition=bottom;verticalAlign=top;align=center;" vertex="1" parent="1">
          <mxGeometry x="400" y="3520" width="99" height="35" as="geometry" />
        </mxCell>
        <mxCell id="czz9d_WLZtdWxG6cxCuf-273" value="" style="shape=mxgraph.signs.transportation.airplane_1;html=1;pointerEvents=1;fillColor=#000000;strokeColor=none;verticalLabelPosition=bottom;verticalAlign=top;align=center;" vertex="1" parent="1">
          <mxGeometry x="409" y="3530" width="99" height="35" as="geometry" />
        </mxCell>
        <mxCell id="czz9d_WLZtdWxG6cxCuf-274" value="" style="shape=mxgraph.signs.transportation.airplane_1;html=1;pointerEvents=1;fillColor=#000000;strokeColor=none;verticalLabelPosition=bottom;verticalAlign=top;align=center;" vertex="1" parent="1">
          <mxGeometry x="412" y="3530" width="99" height="35" as="geometry" />
        </mxCell>
        <mxCell id="czz9d_WLZtdWxG6cxCuf-275" value="50" style="text;html=1;strokeColor=none;fillColor=none;align=center;verticalAlign=middle;whiteSpace=wrap;rounded=0;" vertex="1" parent="1">
          <mxGeometry x="459" y="3445" width="60" height="30" as="geometry" />
        </mxCell>
        <mxCell id="czz9d_WLZtdWxG6cxCuf-276" value="0" style="text;html=1;strokeColor=none;fillColor=none;align=center;verticalAlign=middle;whiteSpace=wrap;rounded=0;" vertex="1" parent="1">
          <mxGeometry x="579" y="3400" width="60" height="30" as="geometry" />
        </mxCell>
        <mxCell id="czz9d_WLZtdWxG6cxCuf-277" value="1" style="text;html=1;strokeColor=none;fillColor=none;align=center;verticalAlign=middle;whiteSpace=wrap;rounded=0;" vertex="1" parent="1">
          <mxGeometry x="582" y="3430" width="60" height="30" as="geometry" />
        </mxCell>
        <mxCell id="czz9d_WLZtdWxG6cxCuf-278" value="1" style="text;html=1;strokeColor=none;fillColor=none;align=center;verticalAlign=middle;whiteSpace=wrap;rounded=0;" vertex="1" parent="1">
          <mxGeometry x="579" y="3460" width="60" height="30" as="geometry" />
        </mxCell>
        <mxCell id="czz9d_WLZtdWxG6cxCuf-279" value="1" style="text;html=1;strokeColor=none;fillColor=none;align=center;verticalAlign=middle;whiteSpace=wrap;rounded=0;" vertex="1" parent="1">
          <mxGeometry x="579" y="3487.5" width="60" height="30" as="geometry" />
        </mxCell>
        <mxCell id="czz9d_WLZtdWxG6cxCuf-280" value="....." style="text;html=1;strokeColor=none;fillColor=none;align=center;verticalAlign=middle;whiteSpace=wrap;rounded=0;" vertex="1" parent="1">
          <mxGeometry x="579" y="3517.5" width="60" height="30" as="geometry" />
        </mxCell>
        <mxCell id="czz9d_WLZtdWxG6cxCuf-281" value="" style="shape=mxgraph.signs.transportation.airplane_1;html=1;pointerEvents=1;fillColor=#000000;strokeColor=none;verticalLabelPosition=bottom;verticalAlign=top;align=center;" vertex="1" parent="1">
          <mxGeometry x="741" y="3435" width="99" height="35" as="geometry" />
        </mxCell>
        <mxCell id="czz9d_WLZtdWxG6cxCuf-282" value="" style="shape=mxgraph.signs.transportation.airplane_1;html=1;pointerEvents=1;fillColor=#000000;strokeColor=none;verticalLabelPosition=bottom;verticalAlign=top;align=center;" vertex="1" parent="1">
          <mxGeometry x="747" y="3470" width="99" height="35" as="geometry" />
        </mxCell>
        <mxCell id="czz9d_WLZtdWxG6cxCuf-283" value="" style="shape=mxgraph.signs.transportation.airplane_1;html=1;pointerEvents=1;fillColor=#000000;strokeColor=none;verticalLabelPosition=bottom;verticalAlign=top;align=center;" vertex="1" parent="1">
          <mxGeometry x="747" y="3507" width="99" height="35" as="geometry" />
        </mxCell>
        <mxCell id="czz9d_WLZtdWxG6cxCuf-284" value="RENT = backup = reserve" style="text;html=1;strokeColor=none;fillColor=none;align=center;verticalAlign=middle;whiteSpace=wrap;rounded=0;" vertex="1" parent="1">
          <mxGeometry x="750" y="3400" width="60" height="30" as="geometry" />
        </mxCell>
      </root>
    </mxGraphModel>
  </diagram>
</mxfile>
